<!-- Generated by IcoMoon.io -->
<svg version="1.1" xmlns="http://www.w3.org/2000/svg" width="1024" height="1024" viewBox="0 0 1024 1024">
<title></title>
<g id="icomoon-ignore">
</g>
<path fill="none" stroke-linejoin="miter" stroke-linecap="butt" stroke-miterlimit="4" stroke-width="28.4444" stroke="#000" d="M284.444 14.222h455.111c149.24 0 270.222 120.983 270.222 270.222v455.111c0 149.24-120.983 270.222-270.222 270.222h-455.111c-149.24 0-270.222-120.983-270.222-270.222v-455.111c0-149.24 120.983-270.222 270.222-270.222z"></path>
<path opacity="0.8" fill="#000" d="M574.578 310.047c4.267 0 8.533 0 17.067 0v64c-4.267 0-12.8 0-21.333 0s-17.067 0-21.333 4.267c-4.267 4.267-4.267 8.533-4.267 18.489 0 8.533 0 14.222 0 22.756h46.933v54.044h-46.933v234.667h-72.533v-236.089h-38.4v-54.044h38.4v-18.489c0-31.289 4.267-54.044 12.8-64 12.8-18.489 38.4-27.022 76.8-27.022 4.267 1.422 8.533 1.422 12.8 1.422z"></path>
</svg>
