<svg aria-hidden="true" style="position: absolute; width: 0; height: 0; overflow: hidden;" version="1.1" xmlns="http://www.w3.org/2000/svg" xmlns:xlink="http://www.w3.org/1999/xlink">
<defs>
<symbol id="icon-fb" viewBox="0 0 32 32">
<path fill="none" stroke="#fbfbfb" style="stroke: var(--color1, #fbfbfb)" stroke-linejoin="miter" stroke-linecap="butt" stroke-miterlimit="4" stroke-width="0.9412" d="M9.412 0.471h13.176c4.938 0 8.941 4.003 8.941 8.941v13.176c0 4.938-4.003 8.941-8.941 8.941h-13.176c-4.938 0-8.941-4.003-8.941-8.941v-13.176c0-4.938 4.003-8.941 8.941-8.941z"></path>
<path fill="#fbfbfb" style="fill: var(--color1, #fbfbfb)" opacity="0.8" d="M17.863 9.986c0.127 0 0.254 0 0.508 0v1.906c-0.127 0-0.381 0-0.635 0s-0.508 0-0.635 0.127c-0.127 0.127-0.127 0.254-0.127 0.551 0 0.254 0 0.424 0 0.678h1.398v1.609h-1.398v6.988h-2.16v-7.031h-1.144v-1.609h1.144v-0.551c0-0.932 0.127-1.609 0.381-1.906 0.381-0.551 1.144-0.805 2.287-0.805 0.127 0.042 0.254 0.042 0.381 0.042z"></path>
</symbol>
<symbol id="icon-insta" viewBox="0 0 32 32">
<path fill="none" stroke="#fbfbfb" style="stroke: var(--color1, #fbfbfb)" stroke-linejoin="miter" stroke-linecap="butt" stroke-miterlimit="4" stroke-width="0.9412" d="M9.412 0.471h13.176c4.938 0 8.941 4.003 8.941 8.941v13.176c0 4.938-4.003 8.941-8.941 8.941h-13.176c-4.938 0-8.941-4.003-8.941-8.941v-13.176c0-4.938 4.003-8.941 8.941-8.941z"></path>
<path fill="#fbfbfb" style="fill: var(--color1, #fbfbfb)" opacity="0.8" d="M22.733 13.224c-0.008-0.569-0.114-1.133-0.315-1.665-0.353-0.908-1.072-1.627-1.982-1.978-0.526-0.198-1.082-0.304-1.645-0.316-0.724-0.032-0.954-0.041-2.791-0.041s-2.073 0-2.792 0.041c-0.562 0.012-1.118 0.118-1.645 0.316-0.91 0.352-1.629 1.070-1.982 1.978-0.198 0.525-0.305 1.080-0.315 1.642-0.032 0.724-0.042 0.953-0.042 2.787s0 2.069 0.042 2.788c0.011 0.562 0.117 1.117 0.315 1.643 0.353 0.908 1.072 1.626 1.982 1.978 0.524 0.204 1.080 0.32 1.645 0.338 0.725 0.032 0.954 0.042 2.792 0.042s2.073 0 2.792-0.042c0.562-0.011 1.118-0.117 1.645-0.315 0.91-0.352 1.629-1.071 1.982-1.978 0.198-0.526 0.304-1.080 0.315-1.643 0.032-0.723 0.042-0.952 0.042-2.787-0.002-1.835-0.001-2.068-0.044-2.787zM15.995 19.458c-1.922 0-3.479-1.555-3.479-3.474s1.557-3.473 3.479-3.473c1.921 0 3.479 1.555 3.479 3.473s-1.559 3.474-3.479 3.474zM19.613 13.192c-0.449 0-0.811-0.362-0.811-0.81s0.362-0.81 0.811-0.81c0.448 0 0.811 0.362 0.811 0.81s-0.363 0.81-0.811 0.81z"></path>
<path fill="#fbfbfb" style="fill: var(--color1, #fbfbfb)" opacity="0.8" d="M15.996 18.105c1.171 0 2.12-0.949 2.12-2.12s-0.949-2.12-2.12-2.12c-1.171 0-2.12 0.949-2.12 2.12s0.949 2.12 2.12 2.12z"></path>
</symbol>
<symbol id="icon-youtube" viewBox="0 0 32 32">
<path fill="none" stroke="#fbfbfb" style="stroke: var(--color1, #fbfbfb)" stroke-linejoin="miter" stroke-linecap="butt" stroke-miterlimit="4" stroke-width="0.9412" d="M9.412 0.471h13.176c4.938 0 8.941 4.003 8.941 8.941v13.176c0 4.938-4.003 8.941-8.941 8.941h-13.176c-4.938 0-8.941-4.003-8.941-8.941v-13.176c0-4.938 4.003-8.941 8.941-8.941z"></path>
<path fill="#fbfbfb" style="fill: var(--color1, #fbfbfb)" opacity="0.8" d="M20.362 10.706c-0.72-0.042-2.202-0.085-4.447-0.085h-0.296c-2.16 0-3.6 0.042-4.32 0.127-0.974 0.085-1.652 0.339-2.033 0.678-0.339 0.296-0.593 0.847-0.678 1.567-0.042 0.466-0.085 1.44-0.085 2.922v0.212c0 1.398 0.042 2.372 0.127 2.838 0.127 0.678 0.339 1.186 0.762 1.482 0.424 0.339 1.143 0.551 2.16 0.635 0.72 0.042 2.202 0.085 4.447 0.085h0.296c2.16 0 3.6-0.042 4.32-0.127 0.974-0.085 1.652-0.339 2.033-0.678 0.339-0.296 0.593-0.847 0.678-1.567 0.042-0.466 0.085-1.44 0.085-2.922v-0.212c0-1.398-0.042-2.372-0.127-2.838-0.127-0.678-0.339-1.186-0.762-1.482-0.424-0.339-1.144-0.551-2.16-0.635zM18.71 15.915l-4.659 2.795v-5.591l4.659 2.795z"></path>
</symbol>
</defs>
</svg>
