<!-- Generated by IcoMoon.io -->
<svg version="1.1" xmlns="http://www.w3.org/2000/svg" width="1024" height="1024" viewBox="0 0 1024 1024">
<title></title>
<g id="icomoon-ignore">
</g>
<path fill="none" stroke-linejoin="miter" stroke-linecap="butt" stroke-miterlimit="4" stroke-width="28.4444" stroke="#000" d="M284.444 14.222h455.111c149.24 0 270.222 120.983 270.222 270.222v455.111c0 149.24-120.983 270.222-270.222 270.222h-455.111c-149.24 0-270.222-120.983-270.222-270.222v-455.111c0-149.24 120.983-270.222 270.222-270.222z"></path>
<path opacity="0.8" fill="#000" d="M738.091 418.773c-0.279-19.1-3.817-38.047-10.59-55.913-11.853-30.504-35.988-54.622-66.543-66.432-17.667-6.636-36.343-10.192-55.248-10.596-24.311-1.087-32.020-1.388-93.736-1.388s-69.626 0-93.761 1.388c-18.879 0.404-37.555 3.959-55.222 10.596-30.552 11.81-54.716 35.928-66.543 66.432-6.645 17.638-10.234 36.284-10.587 55.131-1.087 24.297-1.417 31.991-1.417 93.605s0 69.487 1.417 93.605c0.378 18.873 3.942 37.493 10.587 55.179 11.853 30.481 35.991 54.599 66.569 66.409 17.59 6.861 36.267 10.746 55.222 11.352 24.337 1.087 32.046 1.414 93.761 1.414s69.626 0 93.761-1.414c18.879-0.378 37.555-3.934 55.248-10.57 30.552-11.833 54.69-35.954 66.543-66.432 6.645-17.664 10.209-36.284 10.587-55.179 1.087-24.274 1.417-31.969 1.417-93.608-0.051-61.614-0.051-69.433-1.465-93.579zM511.824 628.113c-64.546 0-116.836-52.204-116.836-116.642 0-64.441 52.289-116.642 116.836-116.642 64.495 0 116.836 52.201 116.836 116.642 0 64.438-52.341 116.642-116.836 116.642zM633.31 417.712c-15.090 0-27.244-12.16-27.244-27.199 0-15.036 12.154-27.199 27.244-27.199 15.036 0 27.218 12.163 27.218 27.199 0 15.039-12.183 27.199-27.218 27.199z"></path>
<path opacity="0.8" fill="#000" d="M511.863 582.684c39.313 0 71.182-31.869 71.182-71.182s-31.869-71.182-71.182-71.182c-39.313 0-71.182 31.869-71.182 71.182s31.869 71.182 71.182 71.182z"></path>
</svg>
