<!-- Generated by IcoMoon.io -->
<svg version="1.1" xmlns="http://www.w3.org/2000/svg" width="1024" height="1024" viewBox="0 0 1024 1024">
<title></title>
<g id="icomoon-ignore">
</g>
<path fill="none" stroke-linejoin="miter" stroke-linecap="butt" stroke-miterlimit="4" stroke-width="28.4444" stroke="#000" d="M284.444 14.222h455.111c149.24 0 270.222 120.983 270.222 270.222v455.111c0 149.24-120.983 270.222-270.222 270.222h-455.111c-149.24 0-270.222-120.983-270.222-270.222v-455.111c0-149.24 120.983-270.222 270.222-270.222z"></path>
<path opacity="0.8" fill="#000" d="M658.486 334.219c-24.178-1.422-73.956-2.844-149.333-2.844h-9.956c-72.533 0-120.889 1.422-145.067 4.267-32.711 2.844-55.467 11.378-68.267 22.756-11.378 9.956-19.911 28.444-22.755 52.622-1.422 15.644-2.845 48.356-2.845 98.133v7.111c0 46.933 1.422 79.644 4.267 95.289 4.267 22.756 11.378 39.822 25.6 49.778 14.222 11.378 38.4 18.489 72.533 21.333 24.178 1.422 73.956 2.844 149.333 2.844h9.956c72.533 0 120.889-1.422 145.067-4.267 32.711-2.844 55.467-11.378 68.267-22.756 11.378-9.956 19.911-28.444 22.756-52.622 1.422-15.644 2.844-48.356 2.844-98.133v-7.111c0-46.933-1.422-79.644-4.267-95.289-4.267-22.756-11.378-39.822-25.6-49.778-14.222-11.378-38.4-18.489-72.533-21.333zM603.019 509.153l-156.444 93.867v-187.733l156.444 93.867z"></path>
</svg>
